<?xml version="1.0" standalone="no"?>
<!DOCTYPE svg PUBLIC "-//W3C//DTD SVG 1.1//EN" "http://www.w3.org/Graphics/SVG/1.1/DTD/svg11.dtd" >
<svg xmlns="http://www.w3.org/2000/svg">
<metadata>Generated by IcoMoon</metadata>
<defs>
<font id="icomoon" horiz-adv-x="1024">
<font-face units-per-em="1024" ascent="960" descent="-64" />
<missing-glyph horiz-adv-x="1024" />
<glyph unicode="&#x20;" horiz-adv-x="512" d="" />
<glyph unicode="&#xe900;" glyph-name="ads" d="M0 960v-1024h1024v1024h-1024zM853.333 106.667h-682.667v682.667h682.667v-682.667zM426.667 661.333v-426.667l256 213.333z" />
<glyph unicode="&#xe901;" glyph-name="banners" d="M170.667 478.72h-170.667l42.667-134.4-42.667-133.547h298.667v158.293h-128zM1024 478.72h-170.667v-109.653h-128v-158.293h298.667l-42.667 136.533zM213.333 680.107h597.333v-268.373h-597.333v268.373z" />
<glyph unicode="&#xe902;" glyph-name="business-periods" d="M512 960c-282.88 0-512-229.12-512-512s229.12-512 512-512 512 229.12 512 512c0 282.88-229.12 512-512 512zM512 106.667c-188.587 0-341.333 152.747-341.333 341.333s152.747 341.333 341.333 341.333 341.333-152.747 341.333-341.333-152.747-341.333-341.333-341.333zM554.667 662.187h-85.333v-256h256v85.333h-170.667z" />
<glyph unicode="&#xe903;" glyph-name="categories" d="M298.667 661.333h426.667v-426.667h-426.667v426.667zM0 960v-1024h1024v1024h-1024zM853.333 106.667h-682.667v682.667h682.667v-682.667z" />
<glyph unicode="&#xe904;" glyph-name="categories-constructor" d="M409.173 299.093c24.32-11.093 55.467-16.64 93.44-16.64 31.573 0 57.173 4.693 77.653 13.653s37.547 22.613 51.2 40.533c13.653 17.92 23.893 40.107 30.293 66.56l-94.72 28.587c-4.693-22.187-12.373-39.253-23.040-50.773s-26.453-17.493-46.933-17.493c-21.333 0-37.973 7.253-49.92 21.76s-17.493 40.96-17.493 79.787c0 31.573 5.12 54.187 14.933 69.12 13.227 19.627 32 29.44 56.32 29.44 10.667 0 20.48-2.133 29.44-6.827s16.213-10.667 22.187-19.2c3.84-5.12 7.253-12.8 10.667-23.467l95.573 21.333c-12.373 37.12-31.147 64.427-56.32 82.347s-60.16 26.88-104.107 26.88c-56.32 0-100.267-15.787-130.987-46.933s-46.080-75.52-46.080-133.547c0-43.52 8.96-79.36 26.453-107.093 16.64-27.733 37.547-46.933 61.44-58.027zM0 960v-1024h1024v1024h-1024zM853.333 106.667h-682.667v682.667h682.667v-682.667z" />
<glyph unicode="&#xe905;" glyph-name="categories-menu" d="M420.693 555.947l68.267-267.52h80.213l68.267 267.52v-267.52h88.747v350.72h-142.080l-54.613-213.333-55.040 213.333h-142.507v-350.72h88.747zM0 960v-1024h1024v1024h-1024zM853.333 106.667h-682.667v682.667h682.667v-682.667z" />
<glyph unicode="&#xe906;" glyph-name="currencies" d="M512 960c-282.88 0-512-229.12-512-512s229.12-512 512-512 512 229.12 512 512c0 282.88-229.12 512-512 512zM512 106.667c-188.587 0-341.333 152.747-341.333 341.333s152.747 341.333 341.333 341.333 341.333-152.747 341.333-341.333-152.747-341.333-341.333-341.333zM550.4 497.493v62.72c0.853-0.853 1.707-1.28 2.56-2.133 3.413-4.267 7.68-12.373 11.947-23.467l88.747 14.080c-5.547 25.6-17.92 45.653-37.12 60.16-16.213 12.373-38.4 20.053-66.56 23.467v29.013h-67.84v-29.013c-30.293-3.84-54.187-13.653-70.827-29.867-20.053-19.2-29.867-42.667-29.867-71.253 0-20.907 5.12-38.4 14.933-52.907s21.76-24.747 34.987-31.573c10.667-5.12 28.16-11.093 50.773-17.92v-77.653c-2.133 2.133-4.693 4.267-6.4 6.4-4.693 6.827-8.533 18.347-11.52 34.133l-96.427-11.093c2.987-15.787 7.253-29.44 12.8-40.96 5.547-11.093 14.080-21.76 24.32-31.573 10.667-9.813 23.040-17.493 37.973-23.040 10.667-3.84 24.32-6.827 39.253-8.96v-46.507h17.493v-1.28h34.987v2.133h15.36v45.653c12.8 1.28 24.747 2.987 34.133 6.4 13.653 4.267 26.453 11.52 38.4 21.333s21.76 21.76 29.867 36.267c7.68 14.507 11.52 30.293 11.52 47.787 0 29.867-10.667 54.187-32.427 73.387-14.080 12.373-41.813 24.747-81.067 36.267zM482.133 520.96c-1.28 0.853-2.56 2.133-3.413 2.987-3.84 5.12-5.973 11.52-5.973 18.347s2.133 12.373 5.973 17.493c0.853 1.28 2.56 2.133 3.413 2.987v-41.813zM564.48 352c-3.413-3.84-8.533-6.827-14.507-9.813v64.853c6.827-3.413 12.373-7.253 15.787-11.093 5.12-6.4 8.107-13.227 8.107-20.907 0.427-8.533-2.987-16.213-9.387-23.040z" />
<glyph unicode="&#xe907;" glyph-name="intros" d="M14.080 467.2h1009.92v-488.533h-1009.92v488.533zM1024 535.467v96.853h-168.107zM542.72 632.32h-528.64v-96.853h696.747zM813.653 535.467h107.947l-168.533 96.853h-107.947zM1003.52 908.373l12.373-96-166.827-21.76zM538.453 749.653l-523.947-68.693-12.373 96 691.2 90.88zM794.88 881.067l107.093 14.080-154.88-117.76-106.667-14.080z" />
<glyph unicode="&#xe908;" glyph-name="languages" d="M474.88 299.947l34.133 123.307c-45.653 12.8-84.48 31.147-117.76 52.907 77.653 86.187 113.067 172.373 128.853 227.84h73.813v128h-212.053l-34.133 79.787-117.333-50.773 12.373-29.013h-241.493v-128h80.64c13.653-49.493 46.080-140.373 116.48-225.707-49.067-33.28-108.8-64.427-183.467-89.6l40.533-121.6c98.56 32.853 175.787 75.52 238.080 121.173 49.067-36.267 108.373-67.84 181.333-88.32zM385.28 704c-15.36-39.253-42.24-90.453-89.6-142.507-41.387 50.773-65.707 103.68-79.36 142.507h168.96zM556.373 10.667l37.547 91.307h247.467l40.107-91.307h139.947l-251.733 570.027-117.76-1.28-234.24-568.747h138.667zM713.387 392.107l71.253-162.133h-138.24l66.987 162.133z" />
<glyph unicode="&#xe909;" glyph-name="menu" d="M0 960h426.667v-426.667h-426.667v426.667zM597.333 960h426.667v-426.667h-426.667v426.667zM0 362.667h426.667v-426.667h-426.667v426.667zM597.333 362.667h426.667v-426.667h-426.667v426.667z" />
<glyph unicode="&#xe90a;" glyph-name="order-types" d="M587.093-64l207.36 107.947 137.813 488.107-345.173-173.227zM241.92 41.387l205.653-105.387v422.827l-348.587 172.373zM0 770.133l88.32-161.28 388.267 195.84-87.893 147.627zM1024 778.24l-398.507 181.76-105.813-152.32 398.507-196.267z" />
<glyph unicode="&#xe90b;" glyph-name="products" d="M1024 130.56l-424.533-194.56v474.027l424.533 194.56zM428.373-64l-428.373 192.427v475.307l428.373-193.707zM994.133 740.267l-477.44-203.947-489.387 203.947 477.44 219.733z" />
<glyph unicode="&#xe90c;" glyph-name="refs" d="M0 149.333h213.333v-213.333h-213.333v213.333zM384 149.333h213.333v-213.333h-213.333v213.333zM810.667 149.333h213.333v-213.333h-213.333v213.333zM0 533.333h426.667v-256h-426.667v256zM0 960h1024v-256h-1024v256zM597.333 533.333h426.667v-256h-426.667v256z" />
<glyph unicode="&#xe90d;" glyph-name="saturn-logo" d="M864 858.88c-104.8 104.8-274.72 104.8-379.52 0l-203.040-203.2c-104.8-104.8-104.64-274.88 0-379.68l582.56 582.88zM521.92 821.44c71.2 71.2 180 82.080 262.72 32.8l-135.52-135.52c-56.16 37.44-123.52 51.52-188 41.92l60.8 60.8zM171.52 37.12c104.8-104.8 274.72-104.8 379.52 0l203.040 203.2c104.8 104.8 104.64 274.88 0 379.68l-582.56-582.88zM513.6 74.56c-71.2-71.2-180-82.080-262.72-32.8l135.52 135.52c56.16-37.44 123.52-51.52 188-41.92l-60.8-60.8z" />
<glyph unicode="&#xe90e;" glyph-name="saturn-text-logo" horiz-adv-x="4915" d="M239.616 280.576c48.64-42.496 131.584-90.112 209.408-90.112 59.904 0 90.112 26.624 90.112 60.928 0 122.88-385.024 103.424-385.024 376.832 0 160.768 132.608 266.752 315.904 266.752 97.28 0 197.632-31.744 272.896-98.816l-90.112-174.080c-48.64 42.496-124.416 76.8-192.512 76.8-64.512 0-92.672-26.624-92.672-61.952 0-124.416 385.024-95.232 385.024-370.688 0-146.432-108.544-271.872-309.76-271.872-113.152 0-232.96 41.472-315.904 124.416l112.64 161.792zM1193.472 681.472h-2.56l-187.392-672.768h-219.136l295.936 871.424h224.256l295.936-871.424h-219.136l-187.904 672.768zM1807.872 697.344h-264.704v182.784h742.4v-182.784h-264.704v-688.64h-213.504v688.64zM2381.312 880.128h213.504v-550.912c0-91.648 59.904-140.288 151.040-140.288 91.648 0 151.040 48.64 151.040 140.288v550.912h213.504v-550.912c0-196.096-143.872-335.36-363.008-335.36-221.696 0-365.568 138.752-365.568 335.36v550.912zM3496.448 8.704h-213.504v871.424h303.616c89.088 0 131.584-6.144 169.472-20.48 98.816-37.888 160.768-126.976 160.768-253.44 0-92.672-44.032-194.048-130.56-237.568v-2.56c0 0 12.288-15.872 32.768-52.224l169.472-304.64h-237.568l-220.672 427.008c0 0 90.112 29.696 139.776 76.8 18.944 17.92 29.696 45.056 29.696 79.872 0 44.032-10.752 76.8-51.2 92.672-19.456 8.704-45.056 12.288-80.384 12.288h-71.68v-689.152zM4084.736 880.128h216.064l241.152-407.040c34.304-57.344 73.216-148.48 73.216-148.48h2.56c0 0-9.728 93.696-9.728 148.48v407.040h213.504v-871.424h-214.528l-242.688 406.016c-34.304 57.344-73.216 148.48-73.216 148.48h-2.56c0 0 9.728-93.696 9.728-148.48v-406.016h-213.504v871.424z" />
<glyph unicode="&#xe90f;" glyph-name="store" d="M85.333 960h853.333v-213.333h-853.333v213.333zM1024 405.333l-85.333 256h-853.333l-85.333-256v-128h85.333v-341.333h554.667v341.333h170.667v-341.333h128v341.333h85.333v128zM512 64h-298.667v213.333h298.667v-213.333z" />
<glyph unicode="&#xe910;" glyph-name="tags" d="M1003.947 938.24l-434.347 21.76-569.6-569.6 454.4-454.4 569.6 569.6-20.053 432.64zM820.907 678.4c-43.947 0-79.787 35.84-79.787 79.787s35.84 79.787 79.787 79.787c43.947 0 79.787-35.84 79.787-79.787s-35.413-79.787-79.787-79.787z" />
<glyph unicode="&#xe911;" glyph-name="terminal" d="M853.333 820.907v-703.573h-681.813v703.573h-171.52v-884.907h1024v884.907zM256.853 960h512v-758.613h-512v758.613z" />
<glyph unicode="&#xe912;" glyph-name="settings" d="M1024 379.733v136.533h-106.667c-8.533 64-34.133 119.467-68.267 166.4l76.8 76.8-98.133 98.133-76.8-76.8c-51.2 34.133-106.667 59.733-166.4 68.267v110.933h-136.533v-110.933c-68.267-8.533-123.733-34.133-170.667-68.267l-81.067 76.8-93.867-93.867 76.8-76.8c-34.133-51.2-59.733-106.667-68.267-166.4h-110.933v-136.533h106.667c8.533-64 34.133-119.467 68.267-170.667l-76.8-76.8 98.133-98.133 76.8 76.8c51.2-34.133 106.667-59.733 170.667-68.267v-110.933h136.533v106.667c64 8.533 119.467 34.133 170.667 68.267l76.8-76.8 98.133 98.133-76.8 76.8c34.133 51.2 59.733 106.667 68.267 170.667h106.667zM785.067 448c0-149.333-123.733-273.067-273.067-273.067s-273.067 119.467-273.067 273.067 123.733 273.067 273.067 273.067 273.067-123.733 273.067-273.067z" />
<glyph unicode="&#xe913;" glyph-name="license" d="M558.933 571.733c8.533 29.867 17.067 59.733 17.067 89.6 0 153.6-123.733 277.333-277.333 277.333s-277.333-123.733-277.333-277.333 123.733-277.333 277.333-277.333c51.2 0 93.867 12.8 136.533 34.133l12.8-12.8v-149.333h128v-128h123.733v-89.6l81.067-81.067h217.6v170.667l-439.467 443.733z" />
</font>
</defs>
</svg>
