<?xml version="1.0" encoding="utf-8"?>
<!-- Generator: Adobe Illustrator 24.3.0, SVG Export Plug-In . SVG Version: 6.00 Build 0)  -->
<svg version="1.1" id="Слой_1" xmlns="http://www.w3.org/2000/svg" xmlns:xlink="http://www.w3.org/1999/xlink" x="0px" y="0px"
	 viewBox="0 0 64 64" style="enable-background:new 0 0 64 64;" xml:space="preserve">
<style type="text/css">
	.st0{opacity:0.5;}
	.st1{fill:#FFFFFF;}
</style>
<g class="st0">
	<path class="st1" d="M54,6.3c-6.5-6.6-17.2-6.6-23.7,0L17.6,19c-6.6,6.5-6.5,17.2,0,23.7L54,6.3z M32.6,8.7
		C37.1,4.2,43.9,3.5,49,6.6l-8.5,8.5c-3.5-2.3-7.7-3.2-11.8-2.6L32.6,8.7z"/>
	<g>
		<g>
			<path class="st1" d="M10.7,57.7c6.6,6.6,17.2,6.6,23.7,0L47.1,45c6.5-6.5,6.5-17.2,0-23.7L10.7,57.7z M32.1,55.3
				c-4.5,4.5-11.2,5.1-16.4,2l8.5-8.5c3.5,2.3,7.7,3.2,11.8,2.6L32.1,55.3z"/>
		</g>
	</g>
</g>
</svg>
